<svg xmlns="http://www.w3.org/2000/svg" width="780" height="420" viewBox="0 0 780 420">
<rect width="100%" height="100%" fill="#fbfaf7"/>
<text x="36" y="42" font-size="24" font-family="Arial" font-weight="700" fill="#172033">Explainer Learnability Check</text>
<text x="36" y="66" font-size="13" font-family="Arial" fill="#526070">pilot training rows=2155, val MSE=0.0128, val Spearman=0.542</text>
<text x="36" y="133" font-size="15" font-family="Arial" fill="#172033">Train Pearson</text>
<rect x="210" y="115" width="480" height="28" rx="8" fill="#e5e7eb"/>
<rect x="210" y="115" width="412.3" height="28" rx="8" fill="#3b82f6"/>
<text x="632.3" y="134" font-size="14" font-family="Arial" fill="#172033">0.859</text>
<text x="36" y="191" font-size="15" font-family="Arial" fill="#172033">Val Pearson</text>
<rect x="210" y="173" width="480" height="28" rx="8" fill="#e5e7eb"/>
<rect x="210" y="173" width="290.8" height="28" rx="8" fill="#2563eb"/>
<text x="510.8" y="192" font-size="14" font-family="Arial" fill="#172033">0.606</text>
<text x="36" y="249" font-size="15" font-family="Arial" fill="#172033">Train Spearman</text>
<rect x="210" y="231" width="480" height="28" rx="8" fill="#e5e7eb"/>
<rect x="210" y="231" width="364.1" height="28" rx="8" fill="#14b8a6"/>
<text x="584.1" y="250" font-size="14" font-family="Arial" fill="#172033">0.759</text>
<text x="36" y="307" font-size="15" font-family="Arial" fill="#172033">Val Spearman</text>
<rect x="210" y="289" width="480" height="28" rx="8" fill="#e5e7eb"/>
<rect x="210" y="289" width="260.1" height="28" rx="8" fill="#0f766e"/>
<text x="480.1" y="308" font-size="14" font-family="Arial" fill="#172033">0.542</text>
<text x="36" y="390" font-size="12" font-family="Arial" fill="#64748b">Interpretation: current labels are not random noise; edge features predict local instability with moderate validation correlation.</text>
</svg>